<svg id="Capa_1" enable-background="new 0 0 512 512" height="512" viewBox="0 0 512 512" width="512" xmlns="http://www.w3.org/2000/svg"><g><path d="m70.281 140.563c38.753 0 70.281-31.528 70.281-70.281s-31.528-70.282-70.281-70.282-70.281 31.528-70.281 70.281 31.528 70.282 70.281 70.282zm-15-85.282h30v30h-30z"/><path d="m441.719 371.438c-38.753 0-70.281 31.528-70.281 70.281s31.528 70.281 70.281 70.281 70.281-31.528 70.281-70.281-31.528-70.281-70.281-70.281zm15 85.281h-30v-30h30z"/><path d="m138.263 368.07c7.163 6.617 13.36 14.262 18.358 22.699l32.467-17.468-25.703-28.497z"/><path d="m441.719 140.563c38.753 0 70.281-31.528 70.281-70.281s-31.528-70.282-70.281-70.282-70.281 31.528-70.281 70.281 31.528 70.282 70.281 70.282zm-15-85.282h30v30h-30z"/><path d="m373.737 143.93c-7.163-6.617-13.36-14.262-18.358-22.699l-32.467 17.468 25.703 28.497z"/><path d="m70.281 371.438c-38.753 0-70.281 31.528-70.281 70.281s31.528 70.281 70.281 70.281 70.281-31.528 70.281-70.281-31.528-70.281-70.281-70.281zm15 85.281h-30v-30h30z"/><path d="m348.615 344.804-25.703 28.497 32.467 17.468c4.998-8.437 11.195-16.082 18.358-22.699z"/><path d="m138.263 143.93 25.122 23.266 25.703-28.497-32.467-17.468c-4.998 8.438-11.195 16.083-18.358 22.699z"/><path d="m212.192 157.876-22.224 24.64v146.969l22.224 24.64h87.615l22.224-24.64v-146.969l-22.224-24.64zm58.808 147.778h-30v-99.309h30z"/></g></svg>